<?xml version="1.0" standalone="no"?>
<!DOCTYPE svg PUBLIC "-//W3C//DTD SVG 20010904//EN"
 "http://www.w3.org/TR/2001/REC-SVG-20010904/DTD/svg10.dtd">
<svg version="1.0" xmlns="http://www.w3.org/2000/svg"
 width="327.000000pt" height="327.000000pt" viewBox="0 0 327.000000 327.000000"
 preserveAspectRatio="xMidYMid meet">
<metadata>
Created by potrace 1.14, written by Peter Selinger 2001-2017
</metadata>
<g transform="translate(0.000000,327.000000) scale(0.100000,-0.100000)"
fill="#000000" stroke="none">
<path d="M1533 3226 c-131 -43 -253 -159 -362 -342 l-42 -72 -71 19 c-267 70
-473 29 -577 -117 -84 -116 -98 -288 -42 -502 l19 -72 -97 -57 c-127 -74 -244
-190 -292 -288 -31 -63 -34 -77 -34 -160 0 -81 3 -97 33 -160 45 -95 172 -220
298 -293 l92 -53 -19 -71 c-56 -214 -42 -386 42 -502 104 -146 310 -187 576
-117 l71 18 54 -90 c77 -131 189 -247 286 -294 71 -35 82 -38 166 -38 82 0 98
3 161 33 95 45 220 172 293 298 l53 92 71 -19 c214 -56 386 -42 502 42 146
104 187 310 117 576 l-18 71 90 54 c131 77 247 189 294 286 35 71 38 82 38
166 0 81 -3 98 -31 156 -51 109 -162 216 -320 309 l-72 42 19 71 c56 214 42
386 -42 502 -104 146 -310 187 -576 117 l-71 -18 -54 91 c-72 123 -197 250
-291 296 -56 27 -83 34 -145 37 -47 2 -93 -3 -119 -11z m244 -71 c83 -40 205
-166 266 -275 47 -85 47 -85 25 -94 -74 -29 -265 -124 -338 -168 -47 -28 -88
-52 -91 -54 -3 -2 -38 17 -77 41 -81 51 -264 143 -335 170 l-47 18 36 65 c88
161 211 280 327 318 65 21 165 12 234 -21z m-734 -330 c38 -10 71 -23 73 -29
3 -7 -8 -41 -24 -76 -37 -83 -69 -178 -102 -309 l-27 -104 -129 -34 c-71 -19
-179 -54 -241 -79 -61 -24 -115 -44 -120 -44 -19 0 -54 191 -54 292 0 146 32
237 108 310 103 100 301 127 516 73z m1604 -10 c98 -44 163 -123 192 -233 28
-103 -4 -413 -44 -428 -7 -3 -28 2 -45 11 -57 29 -220 85 -334 114 l-110 28
-26 104 c-33 128 -53 190 -96 297 -19 45 -34 86 -34 90 0 12 144 45 225 51
106 9 206 -4 272 -34z m-1321 -95 c135 -63 296 -159 289 -171 -4 -5 -32 -27
-63 -48 -31 -21 -86 -62 -121 -90 -46 -37 -72 -51 -95 -51 -17 0 -93 -9 -170
-20 -76 -12 -141 -19 -143 -16 -11 11 75 290 123 396 32 73 27 73 180 0z m809
-27 c35 -84 94 -269 110 -342 l7 -34 -43 7 c-24 4 -106 16 -181 25 -134 18
-137 19 -185 58 -26 22 -81 63 -120 92 -40 29 -73 54 -73 56 0 6 163 102 240
140 87 44 180 84 196 85 7 0 29 -39 49 -87z m-408 -210 c44 -32 95 -70 114
-85 l34 -28 -240 0 -240 0 34 28 c73 59 194 142 206 142 7 0 49 -26 92 -57z
m249 -198 c69 -53 324 -317 332 -344 4 -14 7 -157 7 -317 l0 -291 -30 -39
c-53 -69 -317 -324 -344 -332 -14 -4 -157 -7 -317 -7 l-291 0 -38 30 c-48 36
-301 290 -323 323 -12 19 -16 66 -20 237 -3 117 -1 256 3 308 l7 97 84 92 c46
51 125 131 175 178 113 103 94 99 455 96 l261 -1 39 -30z m-844 -142 c-114
-115 -158 -153 -160 -140 -6 30 29 241 41 254 13 13 166 40 234 42 l41 1 -156
-157z m1007 141 c58 -8 111 -20 117 -25 13 -11 48 -223 42 -254 -2 -16 -37 14
-160 138 -176 177 -177 168 1 141z m-1194 -76 c-3 -24 -15 -105 -24 -180 -18
-134 -19 -137 -58 -185 -22 -26 -63 -81 -92 -120 -29 -40 -54 -73 -56 -73 -15
0 -175 299 -210 393 -16 42 -16 50 -4 58 50 32 390 147 438 149 10 0 12 -10 6
-42z m1496 13 c129 -37 202 -62 280 -97 55 -25 60 -29 54 -53 -20 -81 -208
-427 -225 -416 -6 3 -24 27 -41 53 -18 26 -57 78 -87 116 l-55 69 -18 136
c-10 75 -21 155 -24 179 -5 25 -4 42 2 42 5 0 56 -13 114 -29z m-1894 -291
c30 -63 77 -153 105 -200 28 -47 52 -88 54 -91 2 -3 -17 -38 -41 -77 -51 -81
-143 -264 -170 -334 -10 -27 -20 -48 -23 -48 -2 0 -41 21 -85 48 -107 62 -234
186 -273 267 -42 86 -42 194 0 280 41 85 166 206 276 268 85 47 85 47 94 25 5
-13 33 -75 63 -138z m2433 45 c79 -60 144 -135 177 -203 24 -48 28 -70 28
-137 0 -113 -37 -186 -144 -287 -62 -58 -221 -168 -243 -168 -3 0 -13 21 -23
48 -25 66 -109 232 -162 321 -25 42 -47 79 -49 82 -2 3 17 38 41 77 51 81 143
264 170 335 l18 47 65 -36 c36 -19 91 -55 122 -79z m-2082 -456 l-3 -121 -74
98 c-40 54 -78 109 -84 121 -12 26 -6 35 92 166 l66 89 3 -116 c1 -63 1 -170
0 -237z m1585 208 c31 -43 57 -85 57 -92 0 -12 -83 -133 -142 -206 l-28 -34 0
240 0 240 28 -34 c15 -19 53 -70 85 -114z m-1714 -175 c21 -31 62 -86 90 -121
37 -46 51 -72 51 -95 0 -17 9 -93 20 -170 12 -76 19 -141 16 -143 -11 -11
-290 75 -396 123 -56 25 -61 29 -55 53 21 81 208 427 226 416 5 -4 27 -32 48
-63z m1841 -16 c67 -111 160 -307 163 -341 2 -26 -4 -30 -94 -66 -102 -41
-347 -115 -355 -106 -3 2 4 67 16 143 11 77 20 153 20 171 0 22 13 47 43 85
24 29 67 86 96 126 29 39 54 72 56 72 2 0 27 -38 55 -84z m-1343 -564 c-30 -6
-241 29 -254 41 -12 12 -43 190 -43 245 0 28 10 21 158 -126 114 -114 152
-158 139 -160z m1018 165 c-9 -62 -22 -117 -28 -124 -12 -12 -190 -43 -245
-43 -28 0 -21 10 126 158 114 114 158 152 160 139 2 -10 -4 -68 -13 -130z
m-1723 -51 c107 -43 169 -63 298 -96 l104 -27 26 -104 c33 -128 53 -190 96
-297 19 -45 34 -86 34 -91 0 -17 -194 -52 -292 -52 -143 0 -225 27 -301 100
-76 72 -108 164 -108 311 0 111 35 290 56 290 3 0 42 -15 87 -34z m2267 -63
c25 -109 29 -265 10 -335 -35 -133 -124 -222 -257 -257 -70 -19 -230 -14 -332
9 -49 12 -92 25 -95 30 -3 5 10 46 29 92 43 107 63 169 96 297 l27 105 124 32
c125 32 232 68 311 104 24 11 48 20 54 20 6 0 21 -44 33 -97z m-1587 -102
c134 -18 137 -19 185 -58 26 -22 81 -63 121 -92 39 -29 72 -54 72 -56 0 -17
-360 -205 -421 -220 -25 -6 -28 -2 -63 82 -35 84 -95 269 -111 342 l-7 34 43
-7 c24 -4 106 -16 181 -25z m1008 21 c0 -36 -86 -303 -126 -393 -25 -55 -29
-60 -53 -54 -81 21 -427 208 -416 226 4 5 32 27 63 48 31 21 86 62 121 90 52
42 71 51 105 52 22 1 91 9 151 19 133 21 155 22 155 12z m-409 -70 c-73 -59
-194 -142 -206 -142 -12 0 -133 83 -206 142 l-34 28 240 0 240 0 -34 -28z
m-116 -217 c61 -39 252 -135 318 -160 26 -10 47 -20 47 -23 0 -2 -21 -41 -47
-85 -64 -109 -189 -237 -269 -274 -49 -23 -72 -28 -139 -28 -71 0 -89 4 -147
33 -86 42 -195 156 -261 273 l-47 84 37 15 c65 25 264 126 342 173 83 50 73
51 166 -8z"/>
<path d="M1574 2951 c-60 -37 -69 -124 -18 -172 37 -35 113 -34 149 2 50 50
42 133 -17 169 -41 25 -74 25 -114 1z m117 -30 c20 -20 29 -39 29 -61 0 -43
-47 -90 -90 -90 -43 0 -90 47 -90 90 0 43 47 90 90 90 22 0 41 -9 61 -29z"/>
<path d="M1532 1923 c-86 -30 -141 -117 -126 -199 13 -72 74 -115 209 -148 85
-21 115 -39 115 -70 0 -80 -163 -85 -193 -6 -11 29 -13 30 -81 30 l-69 0 6
-40 c8 -63 41 -106 105 -137 48 -23 70 -28 137 -28 168 0 263 82 242 211 -12
74 -80 127 -197 154 -98 22 -120 35 -120 69 0 37 31 61 81 61 39 0 89 -31 89
-56 0 -11 16 -14 70 -14 64 0 70 2 70 20 0 61 -58 129 -129 155 -55 19 -153
18 -209 -2z"/>
<path d="M354 1721 c-60 -37 -69 -124 -18 -172 37 -35 113 -34 149 2 50 50 42
133 -17 169 -41 25 -74 25 -114 1z m117 -30 c20 -20 29 -39 29 -61 0 -43 -47
-90 -90 -90 -43 0 -90 47 -90 90 0 43 47 90 90 90 22 0 41 -9 61 -29z"/>
<path d="M2804 1721 c-60 -37 -69 -124 -18 -172 37 -35 113 -34 149 2 50 50
42 133 -17 169 -41 25 -74 25 -114 1z m117 -30 c20 -20 29 -39 29 -61 0 -43
-47 -90 -90 -90 -43 0 -90 47 -90 90 0 43 47 90 90 90 22 0 41 -9 61 -29z"/>
<path d="M1574 501 c-60 -37 -69 -124 -18 -172 37 -35 113 -34 149 2 50 50 42
133 -17 169 -41 25 -74 25 -114 1z m117 -30 c20 -20 29 -39 29 -61 0 -43 -47
-90 -90 -90 -43 0 -90 47 -90 90 0 43 47 90 90 90 22 0 41 -9 61 -29z"/>
</g>
</svg>
