<svg width="750" height="327" viewBox="0 0 750 327" fill="none" xmlns="http://www.w3.org/2000/svg">
<g clip-path="url(#clip0_1303_98)">
<path d="M286 174C291.523 174 296 169.523 296 164C296 158.477 291.523 154 286 154C280.477 154 276 158.477 276 164C276 169.523 280.477 174 286 174Z" stroke="black" stroke-width="2" stroke-linecap="round" stroke-linejoin="round"/>
<path d="M163 296C168.523 296 173 291.523 173 286C173 280.477 168.523 276 163 276C157.477 276 153 280.477 153 286C153 291.523 157.477 296 163 296Z" stroke="black" stroke-width="2" stroke-linecap="round" stroke-linejoin="round"/>
<path d="M163 51C168.523 51 173 46.5228 173 41C173 35.4772 168.523 31 163 31C157.477 31 153 35.4772 153 41C153 46.5228 157.477 51 163 51Z" stroke="black" stroke-width="2" stroke-linecap="round" stroke-linejoin="round"/>
<path d="M41 174C46.5228 174 51 169.523 51 164C51 158.477 46.5228 154 41 154C35.4772 154 31 158.477 31 164C31 169.523 35.4772 174 41 174Z" stroke="black" stroke-width="2" stroke-linecap="round" stroke-linejoin="round"/>
<path opacity="0.5" d="M275.225 275.225C303.02 247.566 275.497 174.945 213.912 113.088C152.055 51.5026 79.4337 23.9801 51.775 51.7751C23.98 79.4338 51.5025 152.055 113.087 213.913C174.945 275.498 247.566 303.02 275.225 275.225Z" stroke="black" stroke-width="2" stroke-linecap="round" stroke-linejoin="round"/>
<path opacity="0.5" d="M213.912 213.913C275.497 152.055 303.02 79.4338 275.225 51.7751C247.566 23.9801 174.945 51.5026 113.087 113.088C51.5025 174.945 23.98 247.566 51.775 275.225C79.4337 303.02 152.055 275.498 213.912 213.913Z" stroke="black" stroke-width="2" stroke-linecap="round" stroke-linejoin="round"/>
<path d="M163.5 321.503C202.712 321.599 234.601 250.787 234.794 163.5C234.601 76.213 202.712 5.40066 163.5 5.497C124.288 5.40066 92.3985 76.213 92.2058 163.5C92.3985 250.787 124.288 321.599 163.5 321.503Z" stroke="black" stroke-width="5" stroke-linecap="round" stroke-linejoin="round"/>
<path d="M163.5 234.794C250.787 234.601 321.599 202.712 321.503 163.5C321.599 124.288 250.787 92.3987 163.5 92.206C76.2129 92.3987 5.40052 124.288 5.49687 163.5C5.40052 202.712 76.2129 234.601 163.5 234.794Z" stroke="black" stroke-width="5" stroke-linecap="round" stroke-linejoin="round"/>
<path d="M173.197 151.734C173 149.572 172.126 147.892 170.574 146.694C169.041 145.475 166.85 144.866 164.001 144.866C162.114 144.866 160.542 145.112 159.285 145.603C158.027 146.094 157.084 146.772 156.455 147.637C155.826 148.482 155.502 149.454 155.483 150.555C155.443 151.459 155.62 152.254 156.013 152.942C156.426 153.63 157.015 154.239 157.782 154.77C158.568 155.28 159.511 155.732 160.611 156.125C161.712 156.518 162.949 156.862 164.325 157.157L169.512 158.336C172.499 158.984 175.132 159.849 177.412 160.93C179.711 162.01 181.636 163.297 183.189 164.791C184.761 166.284 185.949 168.004 186.755 169.949C187.561 171.894 187.973 174.075 187.993 176.492C187.973 180.304 187.01 183.576 185.104 186.307C183.198 189.038 180.457 191.131 176.881 192.585C173.324 194.039 169.031 194.766 164.001 194.766C158.951 194.766 154.549 194.01 150.796 192.497C147.043 190.984 144.125 188.685 142.042 185.6C139.959 182.515 138.888 178.614 138.83 173.898H152.8C152.918 175.844 153.439 177.465 154.363 178.762C155.286 180.059 156.554 181.041 158.165 181.709C159.796 182.377 161.682 182.711 163.824 182.711C165.789 182.711 167.459 182.446 168.835 181.915C170.23 181.385 171.301 180.648 172.047 179.705C172.794 178.762 173.177 177.681 173.197 176.463C173.177 175.323 172.823 174.35 172.136 173.545C171.448 172.719 170.387 172.012 168.952 171.423C167.538 170.813 165.73 170.253 163.529 169.743L157.222 168.269C151.995 167.07 147.878 165.135 144.872 162.462C141.865 159.77 140.372 156.135 140.392 151.557C140.372 147.823 141.374 144.552 143.398 141.742C145.422 138.932 148.222 136.741 151.798 135.169C155.375 133.597 159.452 132.811 164.03 132.811C168.707 132.811 172.764 133.607 176.203 135.199C179.661 136.77 182.344 138.981 184.25 141.83C186.156 144.679 187.128 147.981 187.168 151.734H173.197Z" fill="black"/>
</g>
<path d="M339.762 210.977C338.171 210.977 336.677 210.85 335.282 210.594C333.907 210.358 332.767 210.054 331.863 209.68L334.693 200.308C336.167 200.759 337.493 201.005 338.672 201.044C339.871 201.084 340.902 200.809 341.767 200.219C342.651 199.63 343.368 198.627 343.918 197.213L344.655 195.297L328.415 148.727H341.619L350.992 181.974H351.464L360.925 148.727H374.218L356.622 198.893C355.777 201.329 354.627 203.451 353.173 205.259C351.739 207.087 349.921 208.492 347.721 209.474C345.52 210.476 342.867 210.977 339.762 210.977ZM393.2 167.827V194H380.643V148.727H392.61V156.715H393.141C394.143 154.082 395.823 151.999 398.181 150.466C400.539 148.914 403.398 148.138 406.758 148.138C409.902 148.138 412.643 148.826 414.981 150.201C417.319 151.576 419.137 153.541 420.434 156.096C421.731 158.631 422.379 161.657 422.379 165.174V194H409.823V167.414C409.843 164.643 409.135 162.482 407.701 160.93C406.267 159.358 404.292 158.572 401.777 158.572C400.087 158.572 398.593 158.935 397.297 159.662C396.019 160.389 395.017 161.45 394.29 162.846C393.583 164.221 393.219 165.881 393.2 167.827ZM456.356 148.727V158.159H429.092V148.727H456.356ZM435.282 137.881H447.838V180.088C447.838 181.247 448.015 182.151 448.368 182.8C448.722 183.429 449.213 183.871 449.842 184.126C450.491 184.382 451.237 184.509 452.082 184.509C452.672 184.509 453.261 184.46 453.851 184.362C454.44 184.244 454.892 184.156 455.206 184.097L457.181 193.44C456.552 193.636 455.668 193.862 454.528 194.118C453.389 194.393 452.004 194.56 450.373 194.619C447.347 194.737 444.694 194.334 442.415 193.411C440.155 192.487 438.396 191.053 437.139 189.107C435.881 187.162 435.262 184.706 435.282 181.739V137.881ZM478.064 167.827V194H465.508V133.636H477.71V156.715H478.241C479.262 154.042 480.913 151.95 483.192 150.437C485.472 148.904 488.331 148.138 491.769 148.138C494.913 148.138 497.655 148.826 499.993 150.201C502.351 151.557 504.178 153.512 505.475 156.066C506.792 158.601 507.44 161.637 507.42 165.174V194H494.864V167.414C494.884 164.624 494.177 162.453 492.742 160.9C491.327 159.348 489.343 158.572 486.788 158.572C485.079 158.572 483.566 158.935 482.249 159.662C480.952 160.389 479.931 161.45 479.184 162.846C478.457 164.221 478.083 165.881 478.064 167.827ZM526.91 194L509.638 133.636H523.58L533.572 175.578H534.073L545.096 133.636H557.033L568.027 175.667H568.558L578.55 133.636H592.491L575.219 194H562.781L551.286 154.534H550.814L539.349 194H526.91ZM614.678 194.884C610.099 194.884 606.14 193.912 602.8 191.966C599.479 190.001 596.915 187.27 595.107 183.772C593.299 180.255 592.395 176.178 592.395 171.54C592.395 166.864 593.299 162.777 595.107 159.279C596.915 155.762 599.479 153.031 602.8 151.085C606.14 149.12 610.099 148.138 614.678 148.138C619.256 148.138 623.206 149.12 626.527 151.085C629.867 153.031 632.441 155.762 634.249 159.279C636.057 162.777 636.96 166.864 636.96 171.54C636.96 176.178 636.057 180.255 634.249 183.772C632.441 187.27 629.867 190.001 626.527 191.966C623.206 193.912 619.256 194.884 614.678 194.884ZM614.737 185.158C616.82 185.158 618.559 184.568 619.954 183.389C621.349 182.191 622.4 180.56 623.108 178.496C623.835 176.433 624.198 174.085 624.198 171.452C624.198 168.819 623.835 166.471 623.108 164.408C622.4 162.344 621.349 160.714 619.954 159.515C618.559 158.316 616.82 157.717 614.737 157.717C612.634 157.717 610.866 158.316 609.431 159.515C608.017 160.714 606.946 162.344 606.219 164.408C605.511 166.471 605.158 168.819 605.158 171.452C605.158 174.085 605.511 176.433 606.219 178.496C606.946 180.56 608.017 182.191 609.431 183.389C610.866 184.568 612.634 185.158 614.737 185.158ZM645.125 194V148.727H657.298V156.626H657.769C658.595 153.817 659.98 151.694 661.925 150.26C663.871 148.806 666.111 148.079 668.646 148.079C669.274 148.079 669.952 148.118 670.679 148.197C671.406 148.275 672.045 148.383 672.595 148.521V159.662C672.006 159.485 671.19 159.328 670.149 159.191C669.107 159.053 668.154 158.984 667.29 158.984C665.443 158.984 663.792 159.387 662.338 160.193C660.904 160.979 659.764 162.079 658.919 163.494C658.094 164.909 657.681 166.54 657.681 168.387V194H645.125ZM691.643 133.636V194H679.087V133.636H691.643ZM718.384 194.737C714.945 194.737 711.83 193.853 709.04 192.084C706.27 190.296 704.069 187.673 702.438 184.214C700.827 180.737 700.021 176.473 700.021 171.423C700.021 166.235 700.856 161.922 702.526 158.483C704.197 155.025 706.417 152.441 709.188 150.732C711.978 149.002 715.033 148.138 718.354 148.138C720.889 148.138 723.001 148.57 724.691 149.435C726.401 150.28 727.776 151.341 728.818 152.618C729.879 153.875 730.684 155.113 731.234 156.332H731.618V133.636H744.144V194H731.765V186.749H731.234C730.645 188.007 729.81 189.255 728.729 190.493C727.668 191.711 726.283 192.723 724.573 193.528C722.883 194.334 720.82 194.737 718.384 194.737ZM722.363 184.745C724.387 184.745 726.096 184.195 727.491 183.094C728.906 181.974 729.987 180.412 730.733 178.408C731.5 176.404 731.883 174.056 731.883 171.364C731.883 168.672 731.51 166.333 730.763 164.349C730.016 162.364 728.935 160.831 727.521 159.751C726.106 158.67 724.387 158.13 722.363 158.13C720.299 158.13 718.56 158.69 717.146 159.81C715.731 160.93 714.66 162.482 713.933 164.467C713.206 166.451 712.842 168.75 712.842 171.364C712.842 173.997 713.206 176.325 713.933 178.349C714.68 180.353 715.751 181.925 717.146 183.065C718.56 184.185 720.299 184.745 722.363 184.745Z" fill="black"/>
<defs>
<clipPath id="clip0_1303_98">
<rect width="327" height="327" fill="white"/>
</clipPath>
</defs>
</svg>
